<svg width="40" height="40" viewBox="0 0 40 40" fill="none" xmlns="http://www.w3.org/2000/svg">
<circle cx="20" cy="20" r="19" stroke="#E89806" stroke-width="2"/>
<path d="M23.75 10H16.25C12.7988 10 10 12.7988 10 16.25V23.75C10 27.2013 12.7988 30 16.25 30H23.75C27.2013 30 30 27.2013 30 23.75V16.25C30 12.7988 27.2013 10 23.75 10ZM28.125 23.75C28.125 26.1625 26.1625 28.125 23.75 28.125H16.25C13.8375 28.125 11.875 26.1625 11.875 23.75V16.25C11.875 13.8375 13.8375 11.875 16.25 11.875H23.75C26.1625 11.875 28.125 13.8375 28.125 16.25V23.75Z" fill="#E89806"/>
<path d="M20 15C17.2387 15 15 17.2387 15 20C15 22.7613 17.2387 25 20 25C22.7613 25 25 22.7613 25 20C25 17.2387 22.7613 15 20 15ZM20 23.125C18.2775 23.125 16.875 21.7225 16.875 20C16.875 18.2763 18.2775 16.875 20 16.875C21.7225 16.875 23.125 18.2763 23.125 20C23.125 21.7225 21.7225 23.125 20 23.125Z" fill="#E89806"/>
<path d="M25.375 15.2912C25.743 15.2912 26.0412 14.9929 26.0412 14.625C26.0412 14.257 25.743 13.9587 25.375 13.9587C25.007 13.9587 24.7087 14.257 24.7087 14.625C24.7087 14.9929 25.007 15.2912 25.375 15.2912Z" fill="#E89806"/>
</svg>
