<svg width="40" height="40" viewBox="0 0 40 40" fill="none" xmlns="http://www.w3.org/2000/svg">
<circle cx="20" cy="20" r="19" stroke="#E89806" stroke-width="2"/>
<path d="M20.2719 10C14.7904 10 11.8752 13.5127 11.8752 17.3428C11.8752 19.1192 12.8678 21.3343 14.4566 22.0368C14.6979 22.1455 14.8291 22.0993 14.8829 21.8755C14.9304 21.7055 15.1391 20.8867 15.2404 20.5005C15.2716 20.3767 15.2554 20.2692 15.1554 20.153C14.6279 19.5429 14.2091 18.4316 14.2091 17.3891C14.2091 14.7177 16.3329 12.1238 19.9469 12.1238C23.072 12.1238 25.2583 14.1539 25.2583 17.0578C25.2583 20.3392 23.522 22.6093 21.2657 22.6093C20.0169 22.6093 19.0868 21.6293 19.3818 20.4167C19.7381 18.9729 20.4369 17.4203 20.4369 16.379C20.4369 15.4452 19.9094 14.6727 18.8318 14.6727C17.5605 14.6727 16.5292 15.9315 16.5292 17.6216C16.5292 18.6954 16.9092 19.4204 16.9092 19.4204C16.9092 19.4204 15.6517 24.5007 15.4179 25.4494C15.0229 27.0558 15.4717 29.6571 15.5104 29.8809C15.5342 30.0046 15.6729 30.0434 15.7504 29.9421C15.8742 29.7796 17.3942 27.6108 17.8205 26.0432C17.9755 25.4719 18.6118 23.1556 18.6118 23.1556C19.0306 23.9119 20.2394 24.5457 21.5269 24.5457C25.3571 24.5457 28.1247 21.1793 28.1247 17.0016C28.111 12.9964 24.6833 10 20.2719 10Z" fill="#E89806"/>
</svg>
