<svg width="18" height="17" viewBox="0 0 18 17" fill="none" xmlns="http://www.w3.org/2000/svg">
<path d="M17.9109 6.4241C17.7947 6.06489 17.4761 5.80977 17.0992 5.7758L11.9792 5.31089L9.95454 0.572098C9.80526 0.224806 9.46528 0 9.08753 0C8.70979 0 8.3698 0.224806 8.22052 0.572911L6.19591 5.31089L1.07504 5.7758C0.698783 5.81058 0.380996 6.06489 0.264194 6.4241C0.147392 6.7833 0.255261 7.17728 0.53989 7.42564L4.41005 10.8198L3.26883 15.8469C3.18532 16.2165 3.32878 16.5986 3.63547 16.8203C3.80032 16.9394 3.99319 17 4.18768 17C4.35537 17 4.52171 16.9548 4.67099 16.8655L9.08753 14.2259L13.5024 16.8655C13.8255 17.0598 14.2328 17.0421 14.5388 16.8203C14.8456 16.5979 14.9889 16.2157 14.9054 15.8469L13.7642 10.8198L17.6344 7.42632C17.919 7.17728 18.0277 6.78398 17.9109 6.4241Z" fill="#AEB3C4"/>
</svg>
