<svg width="19" height="17" viewBox="0 0 19 17" fill="none" xmlns="http://www.w3.org/2000/svg">
<path d="M18.1716 6.4241C18.0555 6.06489 17.7369 5.80977 17.36 5.7758L12.2399 5.31089L10.2153 0.572098C10.066 0.224806 9.72602 0 9.34827 0C8.97053 0 8.63054 0.224806 8.48126 0.572911L6.45665 5.31089L1.33578 5.7758C0.959525 5.81058 0.641738 6.06489 0.524936 6.4241C0.408135 6.7833 0.516004 7.17728 0.800632 7.42564L4.67079 10.8198L3.52957 15.8469C3.44606 16.2165 3.58953 16.5986 3.89622 16.8203C4.06107 16.9394 4.25393 17 4.44842 17C4.61611 17 4.78245 16.9548 4.93173 16.8655L9.34827 14.2259L13.7632 16.8655C14.0863 17.0598 14.4935 17.0421 14.7995 16.8203C15.1063 16.5979 15.2497 16.2157 15.1662 15.8469L14.0249 10.8198L17.8951 7.42632C18.1797 7.17728 18.2884 6.78398 18.1716 6.4241Z" fill="#FFBC1F"/>
</svg>
