<svg width="40" height="40" viewBox="0 0 40 40" fill="none" xmlns="http://www.w3.org/2000/svg">
<circle cx="20" cy="20" r="19" stroke="#E89806" stroke-width="2"/>
<path d="M30.15 14.45C29.6075 13.485 29.0188 13.3075 27.82 13.24C26.6225 13.1588 23.6112 13.125 21.0025 13.125C18.3887 13.125 15.3762 13.1588 14.18 13.2388C12.9837 13.3075 12.3937 13.4837 11.8462 14.45C11.2875 15.4137 11 17.0738 11 19.9963C11 19.9988 11 20 11 20C11 20.0025 11 20.0038 11 20.0038V20.0063C11 22.9163 11.2875 24.5887 11.8462 25.5425C12.3937 26.5075 12.9825 26.6825 14.1788 26.7638C15.3762 26.8338 18.3887 26.875 21.0025 26.875C23.6112 26.875 26.6225 26.8337 27.8212 26.765C29.02 26.6837 29.6087 26.5088 30.1513 25.5438C30.715 24.59 31 22.9175 31 20.0075C31 20.0075 31 20.0038 31 20.0013C31 20.0013 31 19.9988 31 19.9975C31 17.0738 30.715 15.4137 30.15 14.45ZM18.5 23.75V16.25L24.75 20L18.5 23.75Z" fill="#E89806"/>
</svg>
